<svg class="css-y21q64 e1dsd5jd0" fill="#005ac8" height="24px" title="icon" viewBox="0 0 24 24" width="24px"
     xmlns="http://www.w3.org/2000/svg">
    <path d="M2 18.2v.3C2 20.4 3.6 22 5.5 22h13.1c1.9 0 3.4-1.6 3.4-3.5 0-1-.4-1.8-1-2.5V2.5c0-.1-.1-.3-.1-.4-.1 0-.3-.1-.4-.1h-18c-.1 0-.3.1-.3.1s-.2.3-.2.4v15.7zm1 .5v-.4A2.5 2.5 0 015.5 16C6.8 16 8 17.1 8 18.5S6.8 21 5.5 21 3.1 20 3 18.7zM3 16V3h11.7c-.5.4-.9.9-1.3 1.5-.2.4-.1.9.2 1.2.4.3.8.4 1.2.2.5-.3 1-.3 1.6-.1 1 .4 1.5 1.5 1.2 2.5-.2.5-.6.9-1.1 1.1-.4.2-.6.6-.6 1s.4.8.8.9c1.2.2 2.3 0 3.3-.6v4.6c-.4-.2-.9-.3-1.4-.3H5.5c-1 0-1.9.4-2.5 1zM20 3.9v5.6c-.4.3-.8.6-1.3.7-.6.2-1.2.2-1.8.1.5-.2.9-.5 1.2-1 .2-.2.3-.5.4-.8.5-1.5-.3-3.2-1.8-3.7-.3-.1-.6-.1-.8-.2-.5 0-1.1.1-1.5.4.3-.6.7-1 1.2-1.4.5-.4 1.1-.6 1.8-.6h.6c.3 0 .6.1.9.2.4.1.8.4 1.1.7zM18.6 21H7.9c.6-.6 1-1.5 1-2.5s-.4-1.9-1-2.5h10.6c1.3 0 2.4 1.1 2.4 2.5.1 1.4-1 2.5-2.3 2.5z"></path>
    <path d="M12 10h-.2c-.4-1.2-1.5-2-2.8-2-1.3 0-2.4.8-2.8 2H6a2 2 0 00-2 2v1h10v-1a2 2 0 00-2-2zm-7 2c0-.6.4-1 1-1h.1l.8.1.3-.7C7.4 9.6 8.1 9 9 9s1.6.6 1.9 1.3l.3.7.8-.1h.1c.6 0 1 .4 1 1H5z"></path>
</svg>