<svg xmlns="http://www.w3.org/2000/svg" viewBox="0.8 1 172.4 82.7">
	<path d="M27.8 82.3c-2.3.8-5.6 1.4-8.3 1.4-5.8 0-11.6-1.5-16.5-5.2 0 .8-.3 1.3-1 1.3-.6 0-1.2-.3-1.2-1.1 0-.3.3-1 .4-1.3 1.3-4 1.7-13.4 2.6-18.1.2-.6.7-1 1.2-1s1 .4 1 1.2v2.4c.3 10.7 4.2 19.7 14.3 19.7 2.4 0 5.1-.4 6.8-1 7.3-3.1 9.9-10 9.9-16 0-5.8-1.8-11-8.2-14.8-2.5-1.5-5.7-3.5-8-5.3-6-4.5-8.7-10.5-8.7-16.7 0-8.9 5.7-17.6 14.6-21.1 2-.7 6-1.7 8.9-1.7 6.2 0 11.3 2.9 13.3 4.4.1-.4.5-.6.8-.6.5 0 1 .4 1 .9 0 .3-.1.5-.3.8-.4 3.2-2.1 10.2-3.1 13.3-.3.9-.8 1.3-1.2 1.3s-.7-.4-.7-1.1c0-.2.1-.6.1-.6 0-5.7-.1-15.9-12.5-15.9-1.9 0-4 .4-5.5 1-5.2 2.2-7.7 8.1-7.7 14 0 5.1 2.1 10.1 6.1 13 2.8 2.1 6.9 4.9 9.4 6.5 6.7 4.7 9.9 11.2 9.9 18-.1 9.5-7.1 18.9-17.4 22.3zM65.2 53.9c-.5 2-3.5 12.6-5.2 18-.6 1.9-.8 3.1-.8 4 0 1.9.8 2.1 1.5 2.1 1.1 0 2.8-1.7 3.6-2.5.4-.3.8-.5 1.1-.5.5 0 .7.3.7.7 0 .3-.1.7-.5 1.1-1 1.2-6.2 6.3-10.2 6.3-2.5 0-3.9-2.2-3.9-5.9 0-2.1.5-4.6 1.5-7.4 1.1-3.1 4.2-14.5 4.7-16.5.3-1.1.4-2.1.4-2.9 0-1.9-.7-2.9-1.2-2.9-1 0-2.7 1.2-3.6 1.8 0 0-.3.2-.6.2s-.7-.4-.7-.9c0-.3.2-.7.7-1.1 2.9-2.2 6.7-4.5 9-5.4.5-.4 1.1-.6 1.6-.6s.9.3.9.9c0 .2-.1.4-.1.4 1.8 1.4 2.1 3.9 2.1 5.7-.1 2-.3 3.7-1 5.4zm1.2-30c-1.9 0-2.8-3.7-2.8-5.5 0-1.9 4.1-3.9 5.2-3.9 1.7 0 3.1 3.1 3.1 5 0 2.4-3.7 4.4-5.5 4.4zM83.2 71.8c-.4 1.9-.6 3.1-.6 4.1 0 1.6.5 2.1 1.4 2.1 1 0 2.8-1.6 3.8-2.5.2-.2.4-.3.6-.3.4 0 .8.4.8.9 0 .3-.1.5-.3.7-3 3.4-6.6 6.4-10.2 6.4-2.5 0-4-2.1-4-6 0-2 .4-4.4 1.4-7.2 1-3 10-35.7 15-58.1.2-.8.3-1.5.3-2.1 0-1.9-1-2.4-2.5-2.4-1.4 0-2.2.3-2.7.3-.6 0-.9-.3-.9-.7 0-.4.2-.8.8-1 2.6-.8 8.4-3 11.9-4.7.2-.1.6-.3.9-.3.6 0 .9.4.9.8 0 .2-.1.5-.3.7.4 1 .6 2.3.6 3.7 0 1.3-.1 2.5-.5 3.8-5.5 19.7-15.7 58.8-16.4 61.8zM118.6 78.7c-2.3 2-7 4.4-11.8 4.4-4.7 0-7.9-3.4-7.9-9.1 0-1.3.2-2.7.5-4.2 1.3-5.9 3.5-11.8 4.4-15.9.3-1.6.5-2.8.5-3.9 0-1.4-.4-2.2-1.3-2.2-.4 0-1.8.7-3.3 1.8-.2.1-.4.2-.6.2-.4 0-.9-.4-.9-.8 0-.3.2-.7.6-1 1.4-1 8.4-5.6 9.1-6.1.2-.3.5-.4.8-.4.6 0 1.2.4 1.2.9 0 .2-.1.4-.3.6 1.5 1 2.4 3.1 2.4 6.2 0 1.7-.3 3.7-.9 6.1-.7 3-3.3 10.9-4.5 16-.5 1.9-.7 3.3-.7 4.4 0 3.2 1.6 4.1 3.5 4.1 2.6 0 6-1.8 7.6-3.1 2.1-1.9 8.9-8.5 8.9-24.9 0-2.9-1.8-4.5-3.4-4.5-.9 0-1.5.2-2.2.5-.4.2-.8.3-1.1.3-.6 0-.9-.3-.9-.7 0-.4.4-.9 1.3-1.3 2.1-.9 6.3-2.1 8.2-3.9.2-.2.5-.3.7-.3.5 0 .8.4.8 1 2.5 1.3 3.9 4.4 3.9 7.8 0 8-6 20.8-14.6 28zM168.6 51.1c-1.1 2.9-4.9 14.3-6.2 20.1-.4 1.5-.6 2.9-.6 4 0 1.6.4 2.5 1.7 2.5 1.2 0 2.7-1.5 3.5-2.4.2-.2.5-.4.8-.4.4 0 .8.4.8.8 0 .3-.1.5-.3.8-2.6 3.2-4.4 6.5-9.3 6.5-3.3 0-4.4-2.8-4.4-6.1 0-.6 0-1.3.1-2-2.9 5-7.1 8.1-11.3 8.1-5.6 0-8.8-4.5-8.8-10.5 0-12.7 11.6-24.8 21.6-28.5 2.2-1 4.8-1 6.9-1 2.1 0 4.2 1 5.2 1.8.9-.7 2.6-2.2 3.3-2.9.3-.3.6-.4.9-.4.4 0 .7.2.7.7 0 .3-.2.7-.5 1.2-1.7 2.8-2.9 4.3-4.1 7.7zm-26 20.5c0 5.7 2 6.9 3.2 6.9 3.5 0 5.7-2 9-6.9.1-3 6.5-18.3 7.7-23.7-.7-1.9-2.1-2.6-3.9-2.6-.6 0-1 .1-1.9.4-7.9 3.5-14.1 13.8-14.1 25.9z" fill="#000000"/>
</svg>