<svg xmlns="http://www.w3.org/2000/svg" viewBox="145.361 47.7552 27.86 18.17">
	<path d="M155.57 48.71c.11.51-.3.72-.61 1a4.86 4.86 0 01-.51 1.12c-.1.11-.51.11-.61.31s-.31.51-.51.71c-.31.51-1 .82-1.53 1.23a7 7 0 01-2.14 1.63c-.61-.1-1 .2-1.22-.1a10.16 10.16 0 00-2.25 6.42.77.77 0 00.31.71c.1 2 2.55 3.06 4.69 3 .31.1.41-.1.61-.1 2.14 0 3.47-1.23 5.3-1.53a3.19 3.19 0 00.72-.51c3.87-1.43 6.73-4 10-5.91.71-.62 1.22-1.43 2.14-1.74.41-.81 1.53-.92 1.94-1.73.61 0 .91-.72 1.32-.72-.1 1.33-1.32 1.33-1.83 2.25-.41 0-.51.41-.92.41-3 3-6.93 5-10.5 7.54a20.94 20.94 0 00-3.77 1.84c-1.43.3-2.55.91-3.88 1.32-3.67.41-6.42-1.22-6.93-4.28.1-.61-.1-1 0-1.73.41-2.76 1.63-4.69 2.65-6.84.1-.2.41-.1.51-.2a31 31 0 014.78-4.81 3.74 3.74 0 011.84-.21 3.84 3.84 0 01.4.92zm-6.83 5c1.43.1 1.74-.92 2.76-1.33a7.6 7.6 0 011.93-1.63c.21-1 1.23-1.12 1.33-2.14-.92-.1-1.12.61-1.84.71a17.12 17.12 0 00-4.18 4.39z" fill="#000000"/>
</svg>