<svg xmlns="http://www.w3.org/2000/svg" viewBox="128.68 32.3089 23.87 12.94">
	<path d="M144.46 45.25c-1.66 0-3.13-.77-3.13-2.49 0-1.14 1.92-3.18 3.76-5.1s3.7-3.31 3.7-3.95c0-.25-.13-.38-.26-.38-1.27 0-6.24 3.57-8.73 5.55l-4.8 4.9c-1.08 1.15-1.28 1.28-2.23 1.28-.32 0-1-.19-1-.64s2.23-2.42 3.32-3.63l3.82-4.08c.89-.89 2.1-2.3 2.1-3.25 0-.26-.12-.32-.25-.32a24.2 24.2 0 00-4.59 3.19 85 85 0 01-7.17 5.29l-.32-.26a92.42 92.42 0 009.5-7.2c1.08-.83 2.42-1.85 3.12-1.85a1.16 1.16 0 011.21 1.15 7.32 7.32 0 01-1.51 3.76l2.81-1.85c2.1-1.4 4.84-3.06 5.93-3.06a1.1 1.1 0 011.14 1.15c0 1.4-1.85 3.5-3.76 5.35s-4 4.15-4 4.85.57 1.08 1.46 1.08c1.66 0 7-3.63 7.84-4.21l.13.32c-.64.51-6.5 4.4-8.09 4.4z" fill="#000000"/>
</svg>