<svg xmlns="http://www.w3.org/2000/svg" viewBox="83.91 32.3095 21.44 12.95">
	<path d="M96.71 45.25A2.48 2.48 0 0194 42.76a4.28 4.28 0 01.26-1.08l-.64.57c-1.59 1.41-4 3-5.42 3a2.3 2.3 0 01-2.36-2.55 6.66 6.66 0 011-2.8l-2.61 1.72-.32-.26 3.63-2.48c.77-.77 6.06-6.57 10.84-6.57a2.76 2.76 0 012.55 1.59l1.34-1.27h1.53c.51 0 .51.25.51.38s-.71.89-1 1.15L97 40.85a3.8 3.8 0 00-1.14 2.36c0 1 .44 1.4 1.4 1.4 2 0 7.26-3.63 7.9-4.08l.19.32c-1.43.96-6.15 4.4-8.64 4.4zM98.88 33c-2.68 0-11.34 8.28-11.34 10.52 0 .82.63 1 1.08 1 2 0 4.91-2.8 6.76-4.72l3.76-3.88a3 3 0 001-1.79A1.16 1.16 0 0098.88 33z" fill="#000000"/>
</svg>