<svg xmlns="http://www.w3.org/2000/svg" viewBox="62.59 32.6487 22.82 12.63">
	<path d="M82.5 42.7c-1.47 1-2.93 1.85-3.82 1.85-1.6 0-2-1.34-2-2.36 0-.51.06-.64.06-1-.7.64-5 4.08-8 4.08a1.85 1.85 0 01-2-1.78c0-1.34 2.29-3.64 4.46-5.74 1.85-1.79 3.57-3.44 3.57-3.89 0-.19-.07-.38-.19-.38-.58 0-3.32 2-4.4 2.87-2 1.59-5.61 4.27-7.27 5.29l-.32-.26a90.51 90.51 0 009.44-7.07 7.3 7.3 0 013.25-1.66A1.36 1.36 0 0176.7 34c0 1.34-2.42 3.69-4.59 5.73-1.85 1.73-3.44 3.51-3.44 4.15a.73.73 0 00.76.76 5.7 5.7 0 003.32-1.21 22.31 22.31 0 004-2.74c.58-1.91 3.64-8 5.87-8a1 1 0 011 1.15c0 2.29-5.41 6.43-6.31 7a9 9 0 00-.06 1.27c0 1 .32 2.11 1.4 2.11.89 0 2.42-.9 3.7-1.72s2.36-1.53 2.87-1.92l.19.32c-1.06.65-2.41 1.48-2.91 1.8zm.06-9.62c-1.27 0-4.39 5.09-5 6.88 1.21-.51 5.54-4.65 5.54-6.31a.55.55 0 00-.54-.57z" fill="#000000"/>
</svg>