<svg xmlns="http://www.w3.org/2000/svg" viewBox="2.1 1.1 170.4 30.7">
	<path d="M 2.1 22.2 h 0.4 c 0.3 1.5 0.7 2.7 1.2 3.7 s 1 1.8 1.6 2.5 s 1.2 1.2 1.8 1.5 c 0.6 0.4 1.3 0.6 1.9 0.8 c 0.6 0.2 1.3 0.3 1.8 0.3 h 1.7 c 1.4 0 2.6 -0.2 3.5 -0.7 c 0.9 -0.4 1.7 -1 2.2 -1.7 c 0.5 -0.7 0.9 -1.4 1.1 -2.2 c 0.2 -0.8 0.3 -1.5 0.3 -2.1 c 0 -1 -0.2 -1.8 -0.5 -2.4 c -0.4 -0.7 -0.8 -1.3 -1.3 -1.7 c -0.5 -0.5 -1.1 -0.9 -1.8 -1.2 c -0.6 -0.3 -1.2 -0.5 -1.8 -0.7 l -4.7 -1.4 c -2.2 -0.7 -3.9 -1.6 -5 -2.7 s -1.7 -2.6 -1.7 -4.5 c 0 -1.2 0.2 -2.4 0.7 -3.4 c 0.4 -1 1 -2 1.8 -2.7 c 0.8 -0.8 1.7 -1.4 2.8 -1.8 c 1.1 -0.4 2.3 -0.7 3.6 -0.7 c 1 0 1.7 0.1 2.4 0.2 c 0.6 0.2 1.2 0.3 1.7 0.6 c 0.5 0.2 0.9 0.4 1.2 0.6 s 0.7 0.2 1.1 0.2 c 0.4 0 0.6 0 0.7 -0.1 c 0.1 -0.1 0.3 -0.3 0.5 -0.7 h 0.6 v 7.4 h -0.5 c -0.2 -1 -0.4 -1.9 -0.8 -2.8 c -0.4 -0.9 -0.9 -1.7 -1.5 -2.4 s -1.4 -1.3 -2.3 -1.7 c -0.9 -0.4 -1.9 -0.6 -3.1 -0.6 c -0.7 0 -1.4 0.1 -2.2 0.3 c -0.7 0.1 -1.5 0.4 -2.1 0.8 c -0.7 0.4 -1.2 1 -1.7 1.7 S 5 6.2 5 7.3 c 0 0.9 0.2 1.6 0.5 2.2 c 0.4 0.6 0.8 1.1 1.4 1.6 c 0.6 0.4 1.2 0.8 1.9 1.1 c 0.7 0.3 1.4 0.5 2.1 0.8 l 4.9 1.6 c 0.5 0.2 1.2 0.4 2 0.7 c 0.8 0.3 1.6 0.7 2.3 1.2 c 0.7 0.5 1.4 1.3 1.9 2.2 c 0.5 0.9 0.8 2 0.8 3.4 c 0 1.3 -0.2 2.5 -0.7 3.7 c -0.5 1.2 -1.2 2.2 -2.1 3.1 c -0.9 0.9 -2 1.6 -3.3 2.1 c -1.3 0.5 -2.7 0.8 -4.3 0.8 h -1.5 c -0.4 0 -0.8 0 -1.2 -0.1 c -0.4 -0.1 -0.8 -0.1 -1.1 -0.2 c -0.4 -0.1 -0.8 -0.2 -1.3 -0.3 c -0.5 -0.2 -1.1 -0.4 -1.8 -0.6 c -0.6 -0.5 -1.1 -0.6 -1.6 -0.6 c -0.4 0 -0.7 0.1 -0.8 0.2 c -0.1 0.2 -0.3 0.4 -0.4 0.7 h -0.6 v -8.7 Z M 27.4 30.4 H 32 V 2.5 h -4.5 v -0.6 h 13.1 v 0.6 H 36 v 27.9 h 7.3 c 2.4 0 4.3 -0.7 5.6 -2.2 c 1.4 -1.5 2.4 -3.5 3 -6.1 h 0.4 V 31 H 27.4 v -0.6 Z M 55.9 16.4 c 0 -2.2 0.4 -4.2 1.3 -6 c 0.9 -1.8 2 -3.5 3.3 -4.8 c 1.3 -1.4 2.9 -2.4 4.5 -3.2 c 1.7 -0.8 3.4 -1.2 5.1 -1.2 c 1.8 0 3.5 0.4 5.2 1.2 c 1.7 0.8 3.2 1.8 4.5 3.2 c 1.3 1.4 2.4 3 3.2 4.8 c 0.8 1.9 1.2 3.9 1.2 6 c 0 1.9 -0.4 3.8 -1.1 5.6 c -0.7 1.8 -1.7 3.4 -3 4.9 c -1.3 1.4 -2.8 2.6 -4.5 3.4 c -1.7 0.9 -3.6 1.3 -5.6 1.3 c -2 0 -3.9 -0.4 -5.7 -1.3 c -1.7 -0.8 -3.2 -2 -4.5 -3.4 c -1.3 -1.4 -2.3 -3 -3 -4.9 c -0.5 -1.8 -0.9 -3.7 -0.9 -5.6 Z m 4.7 0 c 0 2.4 0.2 4.6 0.5 6.4 c 0.3 1.8 0.9 3.3 1.6 4.6 c 0.8 1.2 1.7 2.1 2.9 2.7 c 1.2 0.6 2.7 0.9 4.4 0.9 c 1.7 0 3.2 -0.3 4.4 -0.9 c 1.2 -0.6 2.2 -1.5 3 -2.7 c 0.8 -1.2 1.3 -2.7 1.6 -4.6 c 0.3 -1.8 0.5 -4 0.5 -6.4 c 0 -1.9 -0.1 -3.7 -0.4 -5.4 s -0.7 -3.3 -1.4 -4.7 C 77 4.9 76 3.8 74.8 3 C 73.6 2.2 72 1.8 70 1.8 s -3.6 0.4 -4.8 1.2 s -2.2 1.9 -2.9 3.3 c -0.7 1.4 -1.2 2.9 -1.4 4.7 c -0.1 1.7 -0.3 3.5 -0.3 5.4 Z M 85.8 30.4 h 3.6 l 11 -29.2 h 1 l 11.1 29.2 h 3.6 v 0.6 h -12.6 v -0.6 h 4.5 L 103.8 19 h -9.5 L 90 30.3 h 4.5 v 0.6 h -8.8 v -0.5 Z M 99.1 6.6 l -4.5 11.9 h 9 L 99.1 6.6 Z M 117.7 30.4 h 4.5 V 2.5 h -4.5 v -0.6 h 8.7 l 13.8 22.2 h 0.1 V 2.5 h -4.5 v -0.6 h 9.7 v 0.6 H 141 v 29.1 h -0.8 L 122.9 4.1 h -0.1 v 26.2 h 4.5 v 0.6 h -9.7 v -0.5 Z M 147.8 30.4 h 4.5 V 2.5 h -4.5 v -0.6 h 23.3 V 9 h -0.4 c -0.4 -1.1 -0.7 -2 -1.1 -2.8 c -0.4 -0.8 -0.9 -1.5 -1.5 -2 s -1.3 -1 -2 -1.2 c -0.8 -0.3 -1.7 -0.4 -2.9 -0.4 h -6.8 v 12.6 h 2.7 c 0.9 0 1.7 -0.1 2.3 -0.2 s 1.2 -0.5 1.6 -0.9 c 0.4 -0.4 0.8 -1.1 1.1 -1.8 c 0.3 -0.8 0.6 -1.8 0.9 -3 h 0.4 V 22 h -0.4 c -0.2 -0.8 -0.4 -1.6 -0.6 -2.3 c -0.2 -0.7 -0.5 -1.4 -0.9 -2 s -0.9 -1 -1.5 -1.4 c -0.6 -0.3 -1.4 -0.5 -2.4 -0.5 h -3.3 v 14.7 h 7.7 c 1.5 0 2.7 -0.3 3.7 -1 c 1 -0.6 1.8 -1.4 2.4 -2.3 c 0.6 -0.9 1.1 -1.8 1.4 -2.8 c 0.3 -1 0.5 -1.7 0.6 -2.4 h 0.4 v 8.9 h -24.9 v -0.5 Z" fill="#000000"/>
</svg>