<svg xmlns="http://www.w3.org/2000/svg" viewBox="82.7972 48.1 30.81 17.47">
	<path d="M92.06 48.61c-.21.82.3 1.53 0 2.14-.51-.2-.31-.51-.51-.92-1.33 1.33-1.94 3.47-3.17 4.8 0 .3-.2.3-.1.51A64.07 64.07 0 0084 62.27c-.1.82-.41 1.63.2 2 4-.92 5.71-4.18 8.67-6.12.21-.1.31-.4.51-.61 1.22-.81 2.55-2.14 4-2.95.51-.21.61-.62 1.22-.31 1.53 1.63-.81 4.49.61 6.22a3.33 3.33 0 001.43.31c1.33-.11 1.73-1 3-1.23a33.53 33.53 0 014.36-3.02c1.43-1.53 3.47-2.44 4.69-4.18.31.21.41-.51.92-.4a2.45 2.45 0 01-1 1.22c-1.43 1.94-3.57 3-5.2 4.69A17.39 17.39 0 00104.6 60h-.31a8.4 8.4 0 01-4.18 2 2.85 2.85 0 01-2.45-2.25c-.2-1.73.51-2.75.31-4.28-1 .1-1.33.92-2.14 1.23-.82.91-2 1.42-2.65 2.44-2.25 1.43-4 3.88-6.22 5.1-.21.41-.82.41-1 .92a1.8 1.8 0 00-1.12.41 5.55 5.55 0 01-1.23-.31 10.86 10.86 0 01-.81-1.12 6.44 6.44 0 011.93-4.79A4.83 4.83 0 0186 56.87c-.1-.71.71-.82.51-1.33a1.36 1.36 0 00.82-1.12c.2-.1.1-.3.4-.3.92-2 2.25-3.78 3.16-5.82.11 0 .21-.1.31-.2.24.2.45.51.86.51z" fill="#000000"/>
</svg>