<svg xmlns="http://www.w3.org/2000/svg" viewBox="1.48 1.15551 170.8 39.32">
	<path d="M 17 1.89 c 5.57 0 9.9 3.05 9.9 8 c 0 5.13 -4.33 8.57 -11 8.57 c -2 0 -3.09 -0.44 -3.09 -1.28 c 0 -0.53 0.4 -0.93 1.15 -0.93 c 0.31 0 0.88 0.05 1.1 0.05 c 3.94 0 6.5 -2.39 6.5 -5.93 c 0 -4.64 -2.69 -6.58 -7.11 -6.58 h -3.82 v 22.14 c 0 3.23 1.37 4.42 5.08 4.42 V 32 H 1.48 v -1.65 c 3.23 0 4.52 -1.23 4.52 -4.42 V 7.54 c 0 -2.43 -1.33 -4 -4.51 -4 V 1.89 Z M 34.94 11.66 h 1.11 V 16 h 0.09 c 1.81 -3 2.92 -4.2 5.39 -4.2 c 1.86 0 3.27 1.55 3.27 2.52 c 0 0.58 -0.57 2.88 -1.81 2.88 c -1.5 0 -1.86 -2.08 -3.32 -2.08 c -1.1 0 -1.9 0.79 -3.62 3.27 v 8 c 0 3.4 1 4 4.51 4 V 32 H 29.07 v -1.56 a 3 3 0 0 0 3.27 -3.27 V 16.7 l -3.27 -1.64 V 14 Z M 52.67 11.66 h 1.11 V 27 c 0 2.12 1 3.36 2.74 3.4 V 32 h -9.64 v -1.56 a 3 3 0 0 0 3.18 -3.09 V 16.52 l -3.35 -1.68 v -1 Z m 1.46 -8 a 2.38 2.38 0 0 1 -2.39 2.39 a 2.34 2.34 0 0 1 -2.38 -2.35 a 2.39 2.39 0 1 1 4.77 0 Z M 65.27 11.66 v 3.75 h 0.09 a 9.32 9.32 0 0 1 7.07 -3.75 c 4.2 0 6.5 2.25 6.5 6.71 V 27 c 0 2.25 0.88 3.18 3.14 3.4 V 32 H 71.64 v -1.56 c 2.65 0 3.58 -1.37 3.58 -3.49 V 19.3 c 0 -2.69 -1.42 -4.68 -4.16 -4.68 c -2.08 0 -3.89 1 -5.79 2.61 v 9.68 c 0 2.12 0.8 3.53 3.58 3.53 V 32 H 58.29 v -1.56 c 2.34 -0.09 3.27 -1.32 3.27 -3.27 V 16.43 l -3 -1.68 v -1 l 5.57 -2.07 Z M 102.23 15.63 c 0 1.33 -0.66 2.13 -1.68 2.13 c -1.19 0 -1.55 -0.67 -2.17 -2 s -1.68 -2.16 -3.84 -2.16 c -3.76 0 -6.15 2.91 -6.15 7.16 S 91.09 29 95.64 29 c 2.7 0 4.42 -0.89 5.66 -2.83 l 1 0.66 c -0.93 3.41 -3.8 5.66 -8.22 5.66 c -5.71 0 -9.29 -4.69 -9.29 -10.3 c 0 -4.29 2.61 -10.56 10.44 -10.56 c 4.26 0.03 7 1.37 7 4 Z M 110.72 11.66 h 1.1 V 27 c 0 2.12 1 3.36 2.74 3.4 V 32 h -9.63 v -1.56 a 3 3 0 0 0 3.18 -3.09 V 16.52 l -3.36 -1.68 v -1 Z m 1.46 -8 a 2.38 2.38 0 0 1 -2.39 2.39 a 2.35 2.35 0 0 1 -2.39 -2.35 a 2.39 2.39 0 0 1 4.78 0 Z M 123.05 11.66 V 15 c 2.3 -2.3 4.51 -3.31 7.21 -3.31 c 5 0 8.13 4.06 8.13 9.37 c 0 6.27 -4.51 11.49 -10.08 11.49 a 11.58 11.58 0 0 1 -5.26 -1.28 v 4.03 c 0 2.48 0.89 3.59 3.76 3.59 v 1.59 h -10.74 v -1.59 a 3 3 0 0 0 3.27 -3.14 V 16.52 l -3.14 -1.68 v -1 l 5.8 -2.18 Z m 0 13.12 c 0 3.41 2.21 5.84 5.53 5.84 c 3.84 0 6.1 -2.83 6.1 -7.56 c 0 -5.26 -3 -8.31 -6.46 -8.31 a 8.5 8.5 0 0 0 -5.17 2 Z M 157.58 16.3 v 11.49 c 0 0.93 0.4 1.55 1.1 1.55 a 2.34 2.34 0 0 0 1.37 -0.49 l 0.4 1.59 c -1.28 1.46 -2.34 2.08 -3.58 2.08 c -1.72 0 -2.78 -1.19 -3 -3.18 c -2.51 2.3 -4.37 3.18 -6.54 3.18 a 4.68 4.68 0 0 1 -4.95 -4.73 c 0 -3.05 2.52 -4.6 6.28 -5.92 l 5.21 -1.82 V 17 c 0 -2.12 -2.07 -3.4 -4.06 -3.4 c -1.73 0 -3.41 1.06 -3.41 2.07 c 0 0.71 1.06 1.86 1.06 2.48 c 0 0.26 -0.08 0.4 -0.57 0.62 l -1.94 0.93 a 3 3 0 0 1 -0.53 0.22 a 5.58 5.58 0 0 1 -1.42 -3.1 c 0 -2.07 2.48 -5.12 8.13 -5.12 c 4.33 -0.04 6.45 1.46 6.45 4.6 Z m -8.18 13.26 c 1.59 0 3 -0.71 4.46 -2.3 v -5.53 l -2.74 1 c -3.53 1.33 -4.81 2.3 -4.81 3.89 a 2.84 2.84 0 0 0 3.09 2.94 Z M 169.56 26.91 c 0 1.94 0.66 3.4 2.74 3.53 V 32 h -9.5 v -1.56 a 2.91 2.91 0 0 0 3 -3.22 V 6 l -3 -1.68 v -1 l 5.65 -2 h 1.11 Z" fill="#000000"/>
</svg>
