<svg xmlns="http://www.w3.org/2000/svg">
	<path d="M35.16 2.63a15 15 0 00-.71 3.06c-1 1.63-1.43 3.56-2.65 5.09-4.18 10.81-9.59 20.5-13.66 31.41C19.67 41 20.48 38.92 22 37.6c.31-.71.51-1.43 1.33-1.63A4.53 4.53 0 0124.76 34c0-.61.51-1.22.92-.82-.1.51-.51 1.33-1.12 1.43-.71 1.84-2.35 2.76-3 4.59-.3.1-.4.41-.81.41-.1.92-.92 1.22-1.12 2-3.06 3.36-4.8 8-6.53 12.74a48.83 48.83 0 01-2.55 7.14c-.51 3.36-1.94 5.81-2.65 9 .41.72 1.22.72 1.94 1 .92.1 2-.1 2.75 0A61.17 61.17 0 0021 68.9c1.53-.92 3.06-1.73 4.69-2.55 2.75-1.63 5.51-3.57 8.26-5.4 1.53-1 3.26-2.35 4.79-3.57.41-.41.82-.92 1.23-1.33.2-.1.51-.1.61-.2.92-.71 1.53-1.73 2.44-2.45.11-.1.41-.1.62-.2.4-.41.61-.92 1.12-1.43.71-.81 1.73-1.63 2.55-2.45.1-.2.1-.4.2-.61.61-.71 1.73-1.22 2-2.24.41.1.31-.31.71-.31 4.18-6.11 9.08-12.33 10.2-20.9a.71.71 0 01.31-.61c-.21-2 .1-4.38-.72-5.91a1.16 1.16 0 01.1-.62c-1-1.83-2.24-3.46-4.38-4.18-2.24-.51-4.79.11-7.14.72a4.48 4.48 0 01-.71.61c-.2.1-.61 0-.82.1-1 .92-2.75 1.12-3.57 2.14-.2.11-.51.11-.71.31-1 .61-1.63 1.22-2.85 1.83-.41.21-.62.92-1.13.82-.2.61-1 .71-1.22 1.22-.61.11-.81.92-1.43.72A21.29 21.29 0 0132.41 26a1.71 1.71 0 011.33-1.53c.51-1.33 2.14-1.64 2.85-3 1-.2 1.22-1.22 2.24-1.43.82-1.22 2.45-1.63 3.57-2.65.21-.2.31 0 .41.1.31-.61 1-.91 1.43-1.32.3-.21.41.1.51.2 1.63-1.73 4.28-2.34 6.52-3.16.21 0 .41 0 .41.2a8.26 8.26 0 015.61.31c3.16 2.35 4.89 6.83 4.18 12.34A43.52 43.52 0 0155.35 41c-.41.21-.51.62-.92.82-2 3.77-5.3 6.32-7.74 9.69-2 1.83-4 3.77-5.92 5.6-.3.11-.41.31-.71.31-2.86 3-6.63 5.1-9.89 7.65-.21.1-.21-.11-.41-.11a21.69 21.69 0 01-6.12 3.78c-.2.1-.2.3-.3.4-.72-.1-1 .41-1.43.62-.92.51-2 .71-3 1.12-.3.1-.51.41-.81.51a4 4 0 00-1.84.71 20.06 20.06 0 00-4.18.82A11.08 11.08 0 017.74 72a96.73 96.73 0 00-4.9 20v3.67c-.1.41.31.51.1 1-.1.11-.3.11-.5.21-.92 0-.51-1.43-.92-2C1.62 90.52 2.74 86 3.25 82c.1-.2.2-.51.31-.71a71.67 71.67 0 011.53-7.95c-.41-1.64 1-3.37.1-4.8.1-3.77 1.12-7 3.16-9.07.2-1 .61-2 1.53-2.24.92-1.33 1.22-3.27 2.55-4.29 0-.81.51-1 .51-1.93 2.34-5.41 4.69-10.71 6.83-16.32C22 30.67 23.54 26 25.89 22a27.79 27.79 0 013.05-6.83c1.43-4.28 3.47-8.46 5.1-12.65 0-.2.1-.2.1-.3.51 0 .51.51 1.02.41zM6.21 71c0 .31-.41.82 0 .92.2-.17.3-.78 0-.92zm1.93-9.79c.21-.4.72-.91.51-1.42-.71 1.57-1.83 3.21-1.93 5.13a14.21 14.21 0 001.42-3.67zm.51 1.23c-.4.3-.4 1.12-.81 1.53A7.22 7.22 0 017 66.76c0 1.12-.51 1.73-.2 2.65.61-.61.41-2.14 1.22-2.65.72-3.77 2-6.93 3.06-10.3 0-.1 0-.1-.1-.1a3.25 3.25 0 01-.51 1c-.39 1.85-1.61 2.98-1.82 5.12zm1.23-4.69c-.1-.1-.1-.1-.21-.1-.1.91-.91 1.12-.91 2.14a5.69 5.69 0 001.12-2zM27.31 31.18A2.65 2.65 0 0126 32.91c.1-.92 1-1 1.12-1.84.09 0 .19 0 .19.11zm.41-.21c-.2 0-.1-.1-.1-.3.3-.11.2.33.1.33zm.71-.81a.27.27 0 01-.3.3.47.47 0 010-.51c.2.05.2.21.3.21zm1.43-1.84l1.23-1.22.3-.1c0-.41.21-1.13.82-1.13.3.62-.41.92-.82 1.13zM68.4 73.59a18.81 18.81 0 01-3.67 1.22 3.08 3.08 0 00-1.43-.2c-4.48-1-5.91-5.4-5.5-10.81 1.2-11.21 5.4-20.08 9.58-28.55.1-.3.21-.71.31-1a3.52 3.52 0 001.22-2.44c3.67-6.73 7.24-13.56 12.13-19 .41-.2.62-.61 1.23-.51s1 .82 1.43 1.33c.1 1.22-.31 1.43-.31 2.45-1.94 6.32-5.1 11.52-8.06 16.92a10.47 10.47 0 00-1 1.84 29.06 29.06 0 00-2.15 3.46c-1.22 1-1.83 2.65-2.75 4a33.2 33.2 0 00-2.75 4c-1.94 2.54-3.88 5.2-6 7.54a50.61 50.61 0 00-1.42 6.63 26.92 26.92 0 00-.51 4.08c-.21 4.89 1.12 8.77 5.71 9.27.91-.4 2.14-.5 3-.91s1.74-1 2.65-1.53a121.56 121.56 0 0010.61-9.79c2.45-2.65 4.89-5.3 7.44-8 .72-.72 1.43-2.14 2.55-2.25-7.01 7.87-13.44 16.24-22.31 22.25zM81 14.05C74.32 22.41 69.12 32.3 64.63 42.8c-.2.3-.31-.2-.51 0a.87.87 0 01.2.71 65.3 65.3 0 00-3.16 8.77c.92-1.12 1.53-2.55 2.76-3.36a49.42 49.42 0 014.28-6 1.46 1.46 0 01.2-.61c2.86-4 5.41-8.36 8.06-12.54 2.14-5.1 5.3-9.18 6.32-15.3-.21-.3-.1-.81-.31-1-.2.11-.2-.1-.41 0a3.36 3.36 0 01-1.06.58z" fill="#000000"/>
	<path d="M92.06 48.61c-.21.82.3 1.53 0 2.14-.51-.2-.31-.51-.51-.92-1.33 1.33-1.94 3.47-3.17 4.8 0 .3-.2.3-.1.51A64.07 64.07 0 0084 62.27c-.1.82-.41 1.63.2 2 4-.92 5.71-4.18 8.67-6.12.21-.1.31-.4.51-.61 1.22-.81 2.55-2.14 4-2.95.51-.21.61-.62 1.22-.31 1.53 1.63-.81 4.49.61 6.22a3.33 3.33 0 001.43.31c1.33-.11 1.73-1 3-1.23a33.53 33.53 0 014.36-3.02c1.43-1.53 3.47-2.44 4.69-4.18.31.21.41-.51.92-.4a2.45 2.45 0 01-1 1.22c-1.43 1.94-3.57 3-5.2 4.69A17.39 17.39 0 00104.6 60h-.31a8.4 8.4 0 01-4.18 2 2.85 2.85 0 01-2.45-2.25c-.2-1.73.51-2.75.31-4.28-1 .1-1.33.92-2.14 1.23-.82.91-2 1.42-2.65 2.44-2.25 1.43-4 3.88-6.22 5.1-.21.41-.82.41-1 .92a1.8 1.8 0 00-1.12.41 5.55 5.55 0 01-1.23-.31 10.86 10.86 0 01-.81-1.12 6.44 6.44 0 011.93-4.79A4.83 4.83 0 0186 56.87c-.1-.71.71-.82.51-1.33a1.36 1.36 0 00.82-1.12c.2-.1.1-.3.4-.3.92-2 2.25-3.78 3.16-5.82.11 0 .21-.1.31-.2.24.2.45.51.86.51z" fill="#000000"/>
	<path d="M123.66 61.46c2.14-2.45 3.88-5.2 6.32-7.34.31-.92 1.23-1.43 1.84-2.14.41 0 .3.5.61.71 0 2.85-2.14 5.4-1.63 8.46a4.7 4.7 0 001 1c1.63.61 2.75-.41 4.28-.71a75 75 0 009.69-6.73c.41-.1.41-.72 1-.72.1-.2.3-.3.4-.61.92-.1 1.23-1.32 2.25-1.22.1.51-.51 1-1 1.12a45.55 45.55 0 01-6.71 5.72c-2.35 1.63-4.79 3.47-7.85 4.38a5.28 5.28 0 01-2.86-.61c-.2-.2-.3-.51-.71-.61a2.39 2.39 0 00-.51-1c-.31-2.65 1.12-4.59 1.43-7.14-.72.21-.82 1.13-1.53 1.33-1.74 2.55-3.77 4.59-5.51 7a14.35 14.35 0 01-1.93 1.52c-2.55.41-2.86-3.46-1.94-5.3-.21-1.83.81-3.67.92-5.3.4-.51.2-1.63.71-2-.31-.51 0-1.12.2-1.53 0-.92.92-3.57-.4-4.48-.21-.11-.21.1-.41.1-.72.3-.92 1-1.74 1.32A96.24 96.24 0 00105.31 69c-.31.1-.71-.41-1-.51 1.43-4.69 4-8.15 5.71-12.44.2-.1.1 0 .41 0 0-.3-.21-.2-.1-.51 1.12-1.32 1.52-3.67 2.85-5 .71.2.92 1.12.61 1.93-.41 0-.1-.61-.3-.81-1.13 1.22-1.53 3.16-2.55 4.38-.21 1.13-1.12 2-1.23 3 3.47-5.1 6.94-10.5 11.22-14.48a1.45 1.45 0 00.71-.2c.62.1.82.51 1.23.71 1.22 4.49-1.12 8.87-1.53 13.36-.31 0 0 .51-.31.51.21 1-.41 2.85.61 3.77 1-.03 1.21-.95 2.02-1.25z" fill="#000000"/>
	<path d="M155.57 48.71c.11.51-.3.72-.61 1a4.86 4.86 0 01-.51 1.12c-.1.11-.51.11-.61.31s-.31.51-.51.71c-.31.51-1 .82-1.53 1.23a7 7 0 01-2.14 1.63c-.61-.1-1 .2-1.22-.1a10.16 10.16 0 00-2.25 6.42.77.77 0 00.31.71c.1 2 2.55 3.06 4.69 3 .31.1.41-.1.61-.1 2.14 0 3.47-1.23 5.3-1.53a3.19 3.19 0 00.72-.51c3.87-1.43 6.73-4 10-5.91.71-.62 1.22-1.43 2.14-1.74.41-.81 1.53-.92 1.94-1.73.61 0 .91-.72 1.32-.72-.1 1.33-1.32 1.33-1.83 2.25-.41 0-.51.41-.92.41-3 3-6.93 5-10.5 7.54a20.94 20.94 0 00-3.77 1.84c-1.43.3-2.55.91-3.88 1.32-3.67.41-6.42-1.22-6.93-4.28.1-.61-.1-1 0-1.73.41-2.76 1.63-4.69 2.65-6.84.1-.2.41-.1.51-.2a31 31 0 014.78-4.81 3.74 3.74 0 011.84-.21 3.84 3.84 0 01.4.92zm-6.83 5c1.43.1 1.74-.92 2.76-1.33a7.6 7.6 0 011.93-1.63c.21-1 1.23-1.12 1.33-2.14-.92-.1-1.12.61-1.84.71a17.12 17.12 0 00-4.18 4.39z" fill="#000000"/>
</svg>