<svg xmlns="http://www.w3.org/2000/svg" viewBox="0 -0.6 174 36.4">
	<path d="M17.7 1.9c1.7 1.2 2.9 2.7 3.6 4.3.7 1.6 1.1 3.1 1.1 4.4 0 1.6-.4 3.1-1.2 4.4-.4.6-.9 1.3-1.6 1.9 1.1.8 2.1 1.8 2.9 2.9.8 1.2 1.2 2.8 1.2 4.9 0 1.5-.4 3-1.1 4.6-.7 1.6-2 3-3.9 4.2-1.9 1.2-4.4 1.8-7.6 1.8h-9L0 32.6V0h10.8c2.9 0 5.2.6 6.9 1.9zM.8 32.3h8.7c2.2 0 3.8-.1 4.9-.3 1.9-.4 3.4-1.3 4.7-2.7 1.3-1.4 1.9-3.3 1.9-5.5 0-1-.2-2-.5-3s-.8-1.9-1.5-2.7c-.4-.5-.8-.8-1.2-1.1-.4-.3-.9-.6-1.6-.9 1.1-.8 1.9-1.8 2.4-3.2.5-1.3.8-2.6.8-3.7 0-1.6-.5-3.2-1.4-4.7-.9-1.5-2.4-2.6-4.5-3.2-.9-.3-2.3-.5-4-.5H.8v31.5zm9.9-27.1c1 0 2 .4 2.9 1.2.9.8 1.3 2 1.3 3.6 0 1.3-.3 2.3-1 2.9-.7.6-1.3.9-2 1-.6.1-1.3.1-2 .1H5.4V5.2h5.3zm3.8 14.3c1.2.6 1.8 1.9 1.8 4 0 1.8-.5 3-1.6 3.6-1 .5-2.2.8-3.5.8H5.4v-9.3h5.3c1.3 0 2.6.3 3.8.9zm-6-6.2h1.8c1 0 1.8-.2 2.6-.5s1.1-1.1 1.1-2.3c0-1-.3-1.6-.9-1.9-.6-.3-1.3-.4-2.1-.4H8.5v5.1zm0 13.8h2.7c2.8 0 4.1-1 4.1-2.9 0-1.7-1.2-2.5-3.5-2.5H8.5v5.4zM39.7 2.3v33.1h-6.3l-2.2-2.7V0H37l2.7 2.3zm-7.6 30h4.6V.8h-4.6v31.5zM61 8.1c-.7-.3-1.5-.5-2.3-.5-.8 0-1.6.2-2.2.6-.7.4-1 1-1 1.9 0 .5.2 1 .5 1.4.3.4 1.1 1.1 2.2 2l1.2 1c2.2 1.9 3.7 3.3 4.6 4.1.9.9 1.5 1.8 2 2.8.5 1 .7 2.3.7 3.8 0 1.9-.5 3.7-1.4 5.3-1 1.6-2.3 2.9-3.9 3.9-1.7 1-3.5 1.4-5.6 1.4-1.2 0-2.2-.1-3.2-.3-.9-.2-2-.4-3.1-.8l-2.2-3.6v-6.9c1.2.8 2.3 1.4 3.5 1.9 1.1.5 2.4.8 3.9.8 1.1 0 1.9-.2 2.5-.7.6-.5.9-1 .9-1.7 0-.8-.3-1.4-.9-2.1-.6-.6-1.6-1.5-3-2.5-1.9-1.5-3.3-2.7-4.3-3.6-.9-.9-1.6-2-2.1-3.1s-.7-2.6-.7-4.3c0-1.8.4-3.5 1.2-4.9.8-1.4 2-2.6 3.5-3.4C53.3-.2 55-.6 57-.6s4 .4 5.9 1.2l2.6 2.3V10L61 8.1zM59.8.6C59 .4 58.1.3 57 .3c-1.7 0-3.2.3-4.6 1-1.3.7-2.4 1.6-3.2 2.8-.8 1.2-1.2 2.6-1.2 4.2 0 1.5.4 3 1.3 4.3.8 1.3 2.4 2.9 4.8 4.7 1.7 1.3 2.9 2.4 3.8 3.4.9 1 1.3 2.2 1.3 3.5 0 .8-.3 1.6-1 2.4-.7.8-1.9 1.2-3.7 1.2-1.3 0-2.5-.2-3.5-.5-1-.4-2-.8-3-1.4v4.8c2.4 1 4.7 1.6 6.9 1.6 1.8 0 3.3-.4 4.7-1.2 1.3-.8 2.4-1.8 3.1-3.1.8-1.3 1.1-2.7 1.1-4.2 0-1.9-.5-3.5-1.4-4.9-1-1.4-2.3-2.8-4.1-4.1-1.7-1.3-2.9-2.3-3.7-2.9-.7-.6-1.3-1.2-1.6-1.8-.4-.6-.6-1.2-.6-1.9 0-.5.2-1 .5-1.5s.8-1 1.5-1.4c.8-.3 1.6-.5 2.6-.5 1.7 0 3.5.5 5.4 1.4V1.5c-.9-.4-1.8-.7-2.6-.9zM103.3 2.4v6H91.8v26.9h-6.3l-2.4-2.7V8.5h-8.7l-2.5-2.7V0h28.6l2.8 2.4zm-30.6 3H84v26.9h4.7V5.4h11.5V.8H72.7v4.6zM123.6.5c1.4.3 2.6.9 3.7 1.6 1.6 1.1 2.8 2.4 3.5 3.9.7 1.5 1.1 3.1 1.1 4.7 0 2.3-.5 4-1.4 5.3-.9 1.3-2 2.4-3.2 3.3 1.3 1.2 2.2 2.2 2.9 3.1.7.9 1.5 2.1 2.5 3.6 2 3.2 3.3 5.3 3.9 6.2.6.9 1.4 1.9 2.2 3h-9.9c-.6-.6-1.1-1.3-1.5-1.9-.4-.7-1.1-1.9-2.1-3.7-.8-1.4-1.4-2.5-2-3.4-.6-.9-1.3-1.7-2.2-2.5-.9-.8-1.9-1.1-3-1v12.6h-6.3l-2.2-2.6V0h8.7c2.2 0 4 .2 5.3.5zm-13.1 31.8h4.7V19.6c1.8-.1 3.3.2 4.4.8 1.1.6 2.2 1.8 3.4 3.4 1.1 1.7 2.8 4.5 5 8.6h5.5c-.5-.8-1-1.5-1.4-2.1-.4-.7-.9-1.6-1.6-2.8-1.3-2.3-2.3-4-3.1-5.1-.8-1.1-1.5-2-2-2.4-.5-.5-1.2-1-2.1-1.6 3.9-1.7 5.8-4.4 5.8-8.4 0-1.8-.5-3.4-1.4-4.7-.9-1.3-2.1-2.3-3.5-3.1-1.6-.8-4-1.3-7.3-1.3h-6.4v31.4zm11.8-26.2c1.3.6 2 2 2 4.1 0 1.2-.4 2.3-1.2 3.3-.8 1-2.3 1.5-4.5 1.5h-3.4V5.2h2.5c1.7 0 3.3.3 4.6.9zm-.8 7.6c1-.3 1.6-1.2 1.6-2.6 0-1.2-.5-2-1.4-2.4-.9-.3-2.1-.5-3.4-.5v6c1.1 0 2.2-.1 3.2-.5zM141.3 7.9c1.6-2.7 3.6-4.8 6.2-6.2 2.6-1.4 5.4-2.2 8.5-2.2 2.8 0 5.6.7 8.4 2.2 2.8 1.5 5.1 3.6 6.9 6.4 1.8 2.8 2.7 6.1 2.7 9.8 0 3.5-.7 6.6-2.2 9.3-1.5 2.7-3.5 4.8-6.2 6.3-2.6 1.5-5.6 2.2-8.9 2.2-3.3 0-6.3-.9-9-2.7-2.7-1.8-4.8-4.1-6.4-7-1.5-2.9-2.3-5.8-2.3-8.9 0-3.4.7-6.5 2.3-9.2zm.6 17.2c1.4 2.4 3.2 4.2 5.6 5.5 2.4 1.3 5.1 2 8.1 2 2.4 0 4.8-.6 7.1-1.7s4.1-2.9 5.6-5.2c1.5-2.4 2.2-5.3 2.2-8.8 0-3.2-.7-6.1-2-8.6s-3.1-4.5-5.4-5.9C160.9 1 158.5.3 155.9.3c-2.6 0-5.1.6-7.6 1.9-2.5 1.3-4.5 3.2-6.1 5.7-1.6 2.5-2.4 5.6-2.4 9.2.1 3.1.7 5.7 2.1 8zm4-14.1c.9-1.8 2.1-3.2 3.7-4.3 1.6-1.1 3.6-1.6 5.8-1.6 1.8 0 3.4.5 5 1.4 1.6.9 2.9 2.3 3.9 4.1 1 1.8 1.5 3.9 1.5 6.2 0 2.1-.4 4-1.2 5.7-.8 1.7-2 3-3.5 4s-3.4 1.5-5.5 1.5c-2.2 0-4.2-.5-5.8-1.5-1.7-1-2.9-2.3-3.8-4s-1.3-3.6-1.3-5.7c-.1-2.1.3-4.1 1.2-5.8zm3.6 12.2c.9 1.5 2 2.5 3.2 3.1 1.2.6 2.4.8 3.5.8 1.4 0 2.8-.4 4.1-1.2 1.4-.8 2.5-1.9 3.4-3.4.9-1.5 1.3-3.4 1.3-5.5 0-2.2-.4-4-1.2-5.5-.8-1.5-1.8-2.5-3.1-3.2-1.3-.7-2.6-1-3.9-1-1.3 0-2.7.3-4 .9-1.3.6-2.4 1.7-3.3 3.1-.9 1.5-1.3 3.4-1.3 5.8-.1 2.5.4 4.6 1.3 6.1z" fill="#000000"/>
</svg>