
<svg xmlns="http://www.w3.org/2000/svg" viewBox="1.11 0.44 120.96 100.82">
	<path d="M26.41 23.9c-1 1-7.4 10.45-7.4 14.72a7.5 7.5 0 00.45 2.74C24.56 38.88 30 33.71 31 33c1.22-.89 4.27-3 6.63-3 1.85 0 4.08.95 4.08 3.63 0 5.29-8.92 11.41-15.8 11.41-4.21 0-5.49-1.59-6.82-2.93a24.62 24.62 0 01-10.2 2.93c-3.19 0-7.78-.38-7.78-1.34 0-.25.77-1.47 1.21-1.47.7 0 2.17 2.23 6.57 2.17a21.09 21.09 0 009.88-2.8 8.79 8.79 0 01-1.22-4.6c0-3.38 3.82-10.52 5.8-13h-1.73C17 24 9.77 21 9.77 14.53 9.77 4.39 23.41.44 26.53.44c.19 0 .58.13.58.32S26 1.27 23.54 2.1c-3.13 1.08-12.81 6.25-12.81 13.26 0 5.54 6.5 8.16 11.6 8.16h1.46A69.92 69.92 0 0138 10.07C43.81 5.92 49.73 3 53.11 3c1.53 0 2.74.7 2.74 2.17 0 6.24-17.65 17.45-29.44 18.73zm11.28 6.75c-2.81 0-5.48 2.23-10 5.87a61 61 0 01-7.9 5.29c.95 1.21 2.48 2.61 5.86 2.61 6.37 0 15.11-6.69 15.11-10.71a2.82 2.82 0 00-3.07-3.06zM53.3 3.5c-3.95 0-9.43 3.7-14.72 7.52C33.74 14.53 28 21.6 26.85 23.26c9-.32 28.49-11.85 28.49-18.16 0-1.1-1.02-1.6-2.04-1.6zM55.41 45.25a2.48 2.48 0 01-2.74-2.49 4.28 4.28 0 01.26-1.08l-.64.57c-1.6 1.41-4 3-5.42 3a2.3 2.3 0 01-2.36-2.55 6.66 6.66 0 011-2.8l-2.62 1.72-.31-.26 3.63-2.48c.76-.77 6-6.57 10.83-6.57a2.75 2.75 0 012.55 1.59l1.34-1.27h1.53c.51 0 .51.25.51.38s-.7.89-1 1.15l-6.25 6.69a3.81 3.81 0 00-1.15 2.36c0 1 .45 1.4 1.4 1.4 2 0 7.27-3.63 7.91-4.08l.19.32c-1.46.96-6.17 4.4-8.66 4.4zM57.58 33c-2.68 0-11.35 8.28-11.35 10.52 0 .82.64 1 1.09 1 2 0 4.9-2.8 6.75-4.72l3.76-3.88a3 3 0 001-1.79A1.15 1.15 0 0057.58 33z" fill="#000000"/>
	<path d="M82.5 42.7c-1.47 1-2.93 1.85-3.82 1.85-1.6 0-2-1.34-2-2.36 0-.51.06-.64.06-1-.7.64-5 4.08-8 4.08a1.85 1.85 0 01-2-1.78c0-1.34 2.29-3.64 4.46-5.74 1.85-1.79 3.57-3.44 3.57-3.89 0-.19-.07-.38-.19-.38-.58 0-3.32 2-4.4 2.87-2 1.59-5.61 4.27-7.27 5.29l-.32-.26a90.51 90.51 0 009.44-7.07 7.3 7.3 0 013.25-1.66A1.36 1.36 0 0176.7 34c0 1.34-2.42 3.69-4.59 5.73-1.85 1.73-3.44 3.51-3.44 4.15a.73.73 0 00.76.76 5.7 5.7 0 003.32-1.21 22.31 22.31 0 004-2.74c.58-1.91 3.64-8 5.87-8a1 1 0 011 1.15c0 2.29-5.41 6.43-6.31 7a9 9 0 00-.06 1.27c0 1 .32 2.11 1.4 2.11.89 0 2.42-.9 3.7-1.72s2.36-1.53 2.87-1.92l.19.32c-1.06.65-2.41 1.48-2.91 1.8zm.06-9.62c-1.27 0-4.39 5.09-5 6.88 1.21-.51 5.54-4.65 5.54-6.31a.55.55 0 00-.54-.57z" fill="#000000"/>
	<path d="M96.71 45.25A2.48 2.48 0 0194 42.76a4.28 4.28 0 01.26-1.08l-.64.57c-1.59 1.41-4 3-5.42 3a2.3 2.3 0 01-2.36-2.55 6.66 6.66 0 011-2.8l-2.61 1.72-.32-.26 3.63-2.48c.77-.77 6.06-6.57 10.84-6.57a2.76 2.76 0 012.55 1.59l1.34-1.27h1.53c.51 0 .51.25.51.38s-.71.89-1 1.15L97 40.85a3.8 3.8 0 00-1.14 2.36c0 1 .44 1.4 1.4 1.4 2 0 7.26-3.63 7.9-4.08l.19.32c-1.43.96-6.15 4.4-8.64 4.4zM98.88 33c-2.68 0-11.34 8.28-11.34 10.52 0 .82.63 1 1.08 1 2 0 4.91-2.8 6.76-4.72l3.76-3.88a3 3 0 001-1.79A1.16 1.16 0 0098.88 33z" fill="#000000"/>
	<path d="M124.12 25.3l-1.91 2.1h1.66c.38 0 .76.13.76.58s-.32.51-.76.51h-2.62l-1.78 1.91c-2.3 2.48-9.69 10.9-9.69 12.75 0 .82.38 1.27 1.21 1.27 1.91 0 5.55-2.8 7.2-3.89l.2.32c-2.87 2-6.7 4.4-8.35 4.4a2.15 2.15 0 01-2.11-2.36 9 9 0 011.53-3.63l1.09-1.72-6.31 4.08-.32-.26 7.39-4.91a55.51 55.51 0 005-5.35l2.23-2.61h-1a.69.69 0 01-.7-.7c0-.39.51-.39.82-.39h1.92l4-4.27c2-2.16 2.74-3.06 4.08-3.06.32 0 .83.13.83.45-.03.48-3.16 3.48-4.37 4.78z" fill="#000000"/>
	<path d="M121.76 45.25c-1.27 0-2.61-.77-2.61-2.1s1.15-3.06 2-4.08l-3.89 2.55-.32-.26 5.55-3.76 4.33-3.76c.89-.76 1.34-1.21 2-1.21.38 0 1.21.06 1.21.51s-.32.64-1 1.27l-5.29 5.29c-1.47 1.47-2.8 2.94-2.8 3.77a1.25 1.25 0 001.4 1.14c1.27 0 5.22-2.48 7.65-4.08l.19.32c-3.38 2.49-7.01 4.4-8.42 4.4zm14.6-18.48a1.22 1.22 0 111.21-1.21 1.26 1.26 0 01-1.21 1.21z" fill="#000000"/>
	<path d="M144.46 45.25c-1.66 0-3.13-.77-3.13-2.49 0-1.14 1.92-3.18 3.76-5.1s3.7-3.31 3.7-3.95c0-.25-.13-.38-.26-.38-1.27 0-6.24 3.57-8.73 5.55l-4.8 4.9c-1.08 1.15-1.28 1.28-2.23 1.28-.32 0-1-.19-1-.64s2.23-2.42 3.32-3.63l3.82-4.08c.89-.89 2.1-2.3 2.1-3.25 0-.26-.12-.32-.25-.32a24.2 24.2 0 00-4.59 3.19 85 85 0 01-7.17 5.29l-.32-.26a92.42 92.42 0 009.5-7.2c1.08-.83 2.42-1.85 3.12-1.85a1.16 1.16 0 011.21 1.15 7.32 7.32 0 01-1.51 3.76l2.81-1.85c2.1-1.4 4.84-3.06 5.93-3.06a1.1 1.1 0 011.14 1.15c0 1.4-1.85 3.5-3.76 5.35s-4 4.15-4 4.85.57 1.08 1.46 1.08c1.66 0 7-3.63 7.84-4.21l.13.32c-.64.51-6.5 4.4-8.09 4.4z" fill="#000000"/>
	<path d="M164 45.25a2.48 2.48 0 01-2.74-2.49 4.28 4.28 0 01.26-1.08l-.64.57c-1.59 1.41-4 3-5.42 3a2.29 2.29 0 01-2.35-2.55 6.65 6.65 0 011-2.8l-2.61 1.72-.32-.26 3.63-2.48c.77-.77 6.06-6.57 10.84-6.57a2.76 2.76 0 012.55 1.59l1.34-1.27H171c.51 0 .51.25.51.38s-.71.89-1 1.15l-6.25 6.69a3.8 3.8 0 00-1.14 2.36c0 1 .44 1.4 1.4 1.4 2 0 7.26-3.63 7.9-4.08l.19.32c-1.38.96-6.1 4.4-8.61 4.4zM166.19 33c-2.68 0-11.34 8.28-11.34 10.52 0 .82.63 1 1.08 1 2 0 4.91-2.8 6.76-4.72l3.76-3.88a3 3 0 001-1.79 1.16 1.16 0 00-1.26-1.13z" fill="#000000"/>
</svg>