<svg xmlns="http://www.w3.org/2000/svg" viewBox="0.369999 0.32 173.2 32.95">
	<path d="M21.64 24.7c0 6.58-5.75 8.57-10.34 8.57-4.21 0-8.66-1.5-10.93-5.17L3.32 26c1.45 4.17 4.27 6.3 8 6.3 3.31 0 7.21-1.63 7.21-6.4 0-9.7-16.64-6.53-16.64-17.41 0-6 5-8.17 9.52-8.17 4.26 0 7.67 2 9.3 4.54L17.93 7c-1-3.77-3.18-5.67-6.58-5.67C7.63 1.3 5 3.47 5 7.33c0 9.21 16.64 6.21 16.64 17.37ZM50.51 10.32c0 7.35-5.58 9.3-12 9.3h-3.83v13.06h-3.63V.93h7.44c6.12 0 12.02 2.32 12.02 9.39ZM34.68 1.89v16.78h2.9c6.44 0 9-2.41 9-8.35 0-5.67-2.86-8.43-9-8.43ZM69.3 16.9c8.75.14 10 6 10.34 11.15.18 2.05.45 3.86 2.45 3.86a2.88 2.88 0 0 0 2.4-1.36l.64.54a4.64 4.64 0 0 1-4 2.05c-9.94 0-.37-15.79-14.43-15.79h-3.52v15.33h-3.63V.93h5.71c7.89 0 13 2.63 13 8.21 0 6.35-5.21 7.58-8.93 7.67Zm-6.12-.5h2.67c7.3 0 8.62-3.13 8.62-7.26s-1.23-7.25-9.21-7.25h-2.08ZM114.8 21.71c0 7.75-4.08 11.56-11.06 11.56-7.21 0-11.84-3.85-11.84-11.52V.93h3.63v20.82c0 6.44 2.49 10.48 8.89 10.48 5.89 0 9.34-3.68 9.34-10.48V.93h1ZM125.53 16.63c0 10.07 3.9 15.46 11.2 15.46 4.12 0 7.71-1.22 10.43-4.76l.77.68c-2.86 3.49-6.76 5.26-12.11 5.26-8.57 0-14.19-6-14.19-16.6 0-10.43 5.66-16.33 14.05-16.33 5.45 0 9.89 1.86 12.2 6.63l-3.67 1.9c-.9-4.17-2.81-7.53-8.53-7.53-6.89 0-10.15 6.31-10.15 15.29ZM159.69 16.58v15.11h13.88v1h-17.5V.93h17.5v1h-13.88v13.7h11.61v.95Z" fill="#000000"/>
</svg>