<svg xmlns="http://www.w3.org/2000/svg" viewBox="104.31 44.36 45.12 24.65">
	<path d="M123.66 61.46c2.14-2.45 3.88-5.2 6.32-7.34.31-.92 1.23-1.43 1.84-2.14.41 0 .3.5.61.71 0 2.85-2.14 5.4-1.63 8.46a4.7 4.7 0 001 1c1.63.61 2.75-.41 4.28-.71a75 75 0 009.69-6.73c.41-.1.41-.72 1-.72.1-.2.3-.3.4-.61.92-.1 1.23-1.32 2.25-1.22.1.51-.51 1-1 1.12a45.55 45.55 0 01-6.71 5.72c-2.35 1.63-4.79 3.47-7.85 4.38a5.28 5.28 0 01-2.86-.61c-.2-.2-.3-.51-.71-.61a2.39 2.39 0 00-.51-1c-.31-2.65 1.12-4.59 1.43-7.14-.72.21-.82 1.13-1.53 1.33-1.74 2.55-3.77 4.59-5.51 7a14.35 14.35 0 01-1.93 1.52c-2.55.41-2.86-3.46-1.94-5.3-.21-1.83.81-3.67.92-5.3.4-.51.2-1.63.71-2-.31-.51 0-1.12.2-1.53 0-.92.92-3.57-.4-4.48-.21-.11-.21.1-.41.1-.72.3-.92 1-1.74 1.32A96.24 96.24 0 00105.31 69c-.31.1-.71-.41-1-.51 1.43-4.69 4-8.15 5.71-12.44.2-.1.1 0 .41 0 0-.3-.21-.2-.1-.51 1.12-1.32 1.52-3.67 2.85-5 .71.2.92 1.12.61 1.93-.41 0-.1-.61-.3-.81-1.13 1.22-1.53 3.16-2.55 4.38-.21 1.13-1.12 2-1.23 3 3.47-5.1 6.94-10.5 11.22-14.48a1.45 1.45 0 00.71-.2c.62.1.82.51 1.23.71 1.22 4.49-1.12 8.87-1.53 13.36-.31 0 0 .51-.31.51.21 1-.41 2.85.61 3.77 1-.03 1.21-.95 2.02-1.25z" fill="#000000"/>
</svg>