<svg xmlns="http://www.w3.org/2000/svg" viewBox="151.18 32.3095 21.43 12.95">
	<path d="M164 45.25a2.48 2.48 0 01-2.74-2.49 4.28 4.28 0 01.26-1.08l-.64.57c-1.59 1.41-4 3-5.42 3a2.29 2.29 0 01-2.35-2.55 6.65 6.65 0 011-2.8l-2.61 1.72-.32-.26 3.63-2.48c.77-.77 6.06-6.57 10.84-6.57a2.76 2.76 0 012.55 1.59l1.34-1.27H171c.51 0 .51.25.51.38s-.71.89-1 1.15l-6.25 6.69a3.8 3.8 0 00-1.14 2.36c0 1 .44 1.4 1.4 1.4 2 0 7.26-3.63 7.9-4.08l.19.32c-1.38.96-6.1 4.4-8.61 4.4zM166.19 33c-2.68 0-11.34 8.28-11.34 10.52 0 .82.63 1 1.08 1 2 0 4.91-2.8 6.76-4.72l3.76-3.88a3 3 0 001-1.79 1.16 1.16 0 00-1.26-1.13z" fill="#000000"/>
</svg>