<svg xmlns="http://www.w3.org/2000/svg" viewBox="0.45 0 171.1 35.87">
	<path d="m25.22 25.84-3.91 10H.45v-.24a3.58 3.58 0 0 0 2.08-3V3.25A3.59 3.59 0 0 0 .45.22V0h17.14L21 7.11l-.2.15C19.13 4.88 16.6.87 12.29.87H5v10h8.12c1.49 0 2.63-1.59 3-2.58h.25v6h-.25c-.39-1-1.53-2.57-3-2.57H5V35h10.46c5 0 7.58-5.45 9.56-9.22ZM38.05 0c10.16 0 20 5.74 20 17.44s-8.67 18.43-20 18.43h-9.46v-.27a3.58 3.58 0 0 0 2.08-3V3.35a3.59 3.59 0 0 0-2.08-3V0Zm-.4 35c11.7 0 17.64-6.35 17.64-16.21C55.29 6.17 46.13.87 37 .87h-3.85V35ZM62.52 35.85v-.25a3.58 3.58 0 0 0 2.08-3V3.25a3.59 3.59 0 0 0-2.08-3V0h6.64v.22a3.59 3.59 0 0 0-2.08 3v29.36a3.58 3.58 0 0 0 2.08 3v.25ZM98.14 0l1.54 8.67h-.25c-1-2.73-2.08-7.78-5.75-7.78h-5.89v31.69a3.58 3.58 0 0 0 2.08 3v.25h-6.64v-.23a3.58 3.58 0 0 0 2.08-3V.87h-5.89c-3.67 0-4.71 5.05-5.75 7.78h-.25L75 0ZM129.11 35.6v.25h-5.06l-1.58-3.17c-3.77-7.53-6.15-15.91-14-17.64v17.54a3.57 3.57 0 0 0 2.08 3v.25h-6.64v-.23a3.58 3.58 0 0 0 2.08-3V3.35a3.59 3.59 0 0 0-2.08-3V0h10.2c5.06 0 11.6 1.93 11.6 8.57 0 4.66-3.62 8.12-9.37 8.12a18.72 18.72 0 0 1-2.57-.15c5.5 3 7.38 8 9.51 12.24 1.66 3.22 3.15 5.93 5.83 6.82ZM108.5.87v13.52c1.88.4 3.51 1.39 7.38 1.39 5 0 7-2.82 7-6.74 0-5.5-3.66-8.17-9.76-8.17ZM132.47 35.85v-.25a3.58 3.58 0 0 0 2.08-3V3.25a3.59 3.59 0 0 0-2.08-3V0h6.64v.22a3.59 3.59 0 0 0-2.08 3v29.36a3.58 3.58 0 0 0 2.08 3v.25ZM167.7 32.33a6.63 6.63 0 0 0 3.81 3.27v.25h-7.73v-.25c1.74-.55 1.93-1.88 1-3.37l-8.52-13.62-8.82 13.82c-.94 1.49-.59 2.58.79 3.17v.25h-5.64v-.25c1.58-.3 2.77-1.83 3.66-3.17l9.47-14.67-8.93-14.27a6.86 6.86 0 0 0-3.72-3.27V0h7.73v.22c-1.73.55-2 1.89-1.09 3.37l7.83 12.49 8.77-12.68a1.92 1.92 0 0 0-.89-3.18V0H171v.22c-1.59.3-2.73 1.94-3.57 3.18L158.08 17Z" fill="#000000"/>
</svg>