<svg xmlns="http://www.w3.org/2000/svg" viewBox="103.92 20.07 24.57 25.18">
	<path d="M124.12 25.3l-1.91 2.1h1.66c.38 0 .76.13.76.58s-.32.51-.76.51h-2.62l-1.78 1.91c-2.3 2.48-9.69 10.9-9.69 12.75 0 .82.38 1.27 1.21 1.27 1.91 0 5.55-2.8 7.2-3.89l.2.32c-2.87 2-6.7 4.4-8.35 4.4a2.15 2.15 0 01-2.11-2.36 9 9 0 011.53-3.63l1.09-1.72-6.31 4.08-.32-.26 7.39-4.91a55.51 55.51 0 005-5.35l2.23-2.61h-1a.69.69 0 01-.7-.7c0-.39.51-.39.82-.39h1.92l4-4.27c2-2.16 2.74-3.06 4.08-3.06.32 0 .83.13.83.45-.03.48-3.16 3.48-4.37 4.78z" fill="#000000"/>
</svg>