<svg xmlns="http://www.w3.org/2000/svg" viewBox="0.9 0.8 172.4 41.4">
	<path d="M22.1 11v21c0 3-.9 5.4-2.8 7.3-1.8 1.9-4.4 2.8-7.8 2.8-3.4 0-6-.9-7.8-2.8C1.9 37.4.9 35 .9 32V11c0-3 .9-5.5 2.8-7.4C5.6 1.7 8.2.8 11.5.8s5.9.9 7.8 2.8c1.9 1.9 2.8 4.3 2.8 7.4zM11.5 36.1c1.4 0 2.3-.4 2.9-1.1.5-.7.8-1.8.8-3.2V11.1c0-1.4-.3-2.4-.8-3.2-.4-.7-1.4-1.1-2.9-1.1-1.3 0-2.2.3-2.8 1-.6.7-.9 1.7-.9 3.3v20.8c0 1.5.3 2.6.9 3.3.6.6 1.5.9 2.8.9zM41.3 7.4v10.4h9.3v6h-9.3v17.8h-6.9V1.4h19.3v6H41.3zM71.6 7.4v10.4h9.3v6h-9.3v17.8h-6.9V1.4H84v6H71.6zM114.2 10.6l-6.6.7c-.1-1.4-.5-2.6-1.2-3.3-.7-.8-1.5-1.1-2.5-1.1-1.1 0-2 .3-2.6 1-.6.7-.9 1.6-.9 2.9 0 1.2.4 2.4 1.2 3.5.8 1.1 2 2.4 3.7 3.8 2.6 2 4.5 3.9 5.8 5.5 1.3 1.6 2.2 3.1 2.6 4.3.4 1.2.7 2.6.7 4 0 3.2-1 5.8-2.9 7.6-2 1.8-4.6 2.7-8 2.7-1.9 0-3.7-.5-5.2-1.4s-2.7-2.2-3.7-3.9-1.4-3.6-1.5-5.9l6.6-.9c.1 2 .6 3.5 1.3 4.5.7 1 1.7 1.5 2.9 1.5s2.1-.3 2.9-.9c.7-.6 1.1-1.5 1.1-2.7 0-1.3-.4-2.6-1.2-3.8s-2-2.5-3.7-3.8c-2.2-1.8-4-3.4-5.3-4.8-1.3-1.4-2.2-2.8-2.9-4.2-.7-1.5-1-3.1-1-4.9 0-3.2.9-5.7 2.8-7.4 1.9-1.7 4.5-2.6 7.9-2.6 2.7 0 4.9.9 6.6 2.6 1.7 1.5 2.7 3.9 3.1 7zM132.2 7.4v10.4h8.9v6h-8.9v11.8h12.4v6h-19.3V1.4h18.5v6h-11.6zM166.6 7.4v34.2h-6.9V7.4H153v-6h20.3v6h-6.7z" fill="#000000"/>
</svg>