<svg class="css-y21q64 e1dsd5jd0" fill="#005ac8" height="24px" title="icon" viewBox="0 0 24 24" width="24px" xmlns="http://www.w3.org/2000/svg"><path d="M6.7 7.1v2.4h.4c.8-1.4 1.2-1.8 2.6-1.8h1.6V15c0 1-.3 1.6-1.6 1.6v.6h4.7v-.6c-1.2 0-1.6-.4-1.6-1.4V7.8h1.6c1.3 0 1.7.2 2.6 1.8h.6l-.2-2.4-10.7-.1zM8 22v-1h3v1H8zm3-20v1H8V2h3zM2 8h1v3H2V8zm14 14h-3v-1h3v1zm2-20h2a2 2 0 012 2v2h-1V4.5c0-.8-.7-1.5-1.5-1.5H18V2zM2 16v-3h1v3H2zM16 2v1h-3V2h3zM6 22H4a2 2 0 01-2-2v-2h1v1.5c0 .8.7 1.5 1.5 1.5H6v1zm16-4v2a2 2 0 01-2 2h-2v-1h1.5c.8 0 1.5-.7 1.5-1.5V18h1zM2 6V4c0-1.1.9-2 2-2h2v1H4.5C3.7 3 3 3.7 3 4.5V6H2zm20 2v3h-1V8h1zm0 8h-1v-3h1v3z"></path></svg>